<?xml version="1.0" encoding="UTF-8" standalone="no"?>
<!-- Created with Inkscape (http://www.inkscape.org/) -->

<svg
   xmlns:dc="http://purl.org/dc/elements/1.1/"
   xmlns:cc="http://creativecommons.org/ns#"
   xmlns:rdf="http://www.w3.org/1999/02/22-rdf-syntax-ns#"
   xmlns:svg="http://www.w3.org/2000/svg"
   xmlns="http://www.w3.org/2000/svg"
   xmlns:sodipodi="http://sodipodi.sourceforge.net/DTD/sodipodi-0.dtd"
   xmlns:inkscape="http://www.inkscape.org/namespaces/inkscape"
   width="1408.546"
   height="517.72412"
   id="svg3942"
   sodipodi:version="0.32"
   inkscape:version="0.92.4 (5da689c313, 2019-01-14)"
   version="1.0"
   sodipodi:docname="spanish.svg"
   inkscape:output_extension="org.inkscape.output.svg.inkscape"
   inkscape:export-filename="D:\Images\Race Tracks\Catalunya.png"
   inkscape:export-xdpi="90.015755"
   inkscape:export-ydpi="90.015755">
  <defs
     id="defs3944">
    <clipPath
       clipPathUnits="userSpaceOnUse"
       id="clipPath9724">
      <path
         id="path9726"
         d="M 727.23942,720.30758 C 1333.36,720.30758 1939.4804,720.30758 2545.601,720.30758 C 2545.601,974.89282 2545.601,1229.4779 2545.601,1484.0631 C 1939.4804,1484.0631 1333.36,1484.0631 727.23942,1484.0631 C 727.23942,1229.4779 727.23942,974.89282 727.23942,720.30758 L 727.23942,720.30758 z"
         style="fill:#6a6a6a;fill-opacity:1;fill-rule:nonzero;stroke:#010101;stroke-width:0.94262564;stroke-linecap:round;stroke-linejoin:round;stroke-miterlimit:4;stroke-dasharray:none;stroke-dashoffset:0;stroke-opacity:1" />
    </clipPath>
    <pattern
       patternUnits="userSpaceOnUse"
       width="18.181098"
       height="18.137641"
       patternTransform="matrix(0.1737876,0,0,0.1737876,763.47719,1693.9071)"
       id="pattern4912">
      <g
         id="g4907"
         transform="translate(-1025.5348,-1215.2814)">
        <rect
           style="opacity:1;fill:#000000;fill-opacity:1;stroke:none;stroke-width:0.5;stroke-linecap:round;stroke-linejoin:round;stroke-miterlimit:4;stroke-dasharray:none;stroke-dashoffset:0;stroke-opacity:1"
           id="rect4899"
           width="18.172573"
           height="18.095789"
           x="1025.5348"
           y="1215.2814" />
        <rect
           style="opacity:1;fill:#ffffff;fill-opacity:1;stroke:none;stroke-width:0.5;stroke-linecap:round;stroke-linejoin:round;stroke-miterlimit:4;stroke-dasharray:none;stroke-dashoffset:0;stroke-opacity:1"
           id="rect4903"
           width="9.0746527"
           height="9.0746527"
           x="1025.5348"
           y="1215.2814" />
        <rect
           style="opacity:1;fill:#ffffff;fill-opacity:1;stroke:none;stroke-width:0.5;stroke-linecap:round;stroke-linejoin:round;stroke-miterlimit:4;stroke-dasharray:none;stroke-dashoffset:0;stroke-opacity:1"
           id="rect4905"
           width="9.0746527"
           height="9.0746527"
           x="1034.6412"
           y="1224.3444" />
      </g>
    </pattern>
    <inkscape:perspective
       sodipodi:type="inkscape:persp3d"
       inkscape:vp_x="0 : 526.18109 : 1"
       inkscape:vp_y="0 : 1000 : 0"
       inkscape:vp_z="744.09448 : 526.18109 : 1"
       inkscape:persp3d-origin="372.04724 : 350.78739 : 1"
       id="perspective3950" />
    <inkscape:perspective
       id="perspective3959"
       inkscape:persp3d-origin="372.04724 : 350.78739 : 1"
       inkscape:vp_z="744.09448 : 526.18109 : 1"
       inkscape:vp_y="0 : 1000 : 0"
       inkscape:vp_x="0 : 526.18109 : 1"
       sodipodi:type="inkscape:persp3d" />
    <inkscape:perspective
       id="perspective4510"
       inkscape:persp3d-origin="372.04724 : 350.78739 : 1"
       inkscape:vp_z="744.09448 : 526.18109 : 1"
       inkscape:vp_y="0 : 1000 : 0"
       inkscape:vp_x="0 : 526.18109 : 1"
       sodipodi:type="inkscape:persp3d" />
    <clipPath
       clipPathUnits="userSpaceOnUse"
       id="clipPath4524">
      <rect
         style="opacity:1;fill:none;fill-opacity:1;fill-rule:nonzero;stroke:black;stroke-width:1;stroke-linecap:butt;stroke-linejoin:round;marker:none;marker-start:none;marker-mid:none;marker-end:none;stroke-miterlimit:4;stroke-dasharray:none;stroke-dashoffset:0;stroke-opacity:1;visibility:visible;display:inline;overflow:visible;enable-background:accumulate"
         id="rect4526"
         width="606.55634"
         height="610.14545"
         x="1330.3564"
         y="915.97675" />
    </clipPath>
  </defs>
  <sodipodi:namedview
     id="base"
     pagecolor="#ffffff"
     bordercolor="#ffffff"
     borderopacity="0.0"
     inkscape:pageopacity="0.0"
     inkscape:pageshadow="0"
     inkscape:zoom="0.37016153"
     inkscape:cx="700.99749"
     inkscape:cy="148.3044"
     inkscape:document-units="px"
     inkscape:current-layer="layer1"
     showgrid="false"
     inkscape:window-width="1920"
     inkscape:window-height="1026"
     inkscape:window-x="0"
     inkscape:window-y="0"
     inkscape:window-maximized="1" />
  <metadata
     id="metadata3947">
    <rdf:RDF>
      <cc:Work
         rdf:about="">
        <dc:format>image/svg+xml</dc:format>
        <dc:type
           rdf:resource="http://purl.org/dc/dcmitype/StillImage" />
        <cc:license
           rdf:resource="http://creativecommons.org/licenses/by-sa/3.0/" />
        <dc:title>Track map for Catalunya</dc:title>
        <dc:date>8-5-2008</dc:date>
        <dc:creator>
          <cc:Agent>
            <dc:title>Will Pittneger</dc:title>
          </cc:Agent>
        </dc:creator>
        <dc:publisher>
          <cc:Agent>
            <dc:title>Will Pittenger</dc:title>
          </cc:Agent>
        </dc:publisher>
        <dc:subject>
          <rdf:Bag>
            <rdf:li>Catalunya</rdf:li>
            <rdf:li>Racing</rdf:li>
            <rdf:li>Formula 1</rdf:li>
            <rdf:li>road course</rdf:li>
            <rdf:li>Elf</rdf:li>
            <rdf:li>Renault</rdf:li>
            <rdf:li>Repsol</rdf:li>
            <rdf:li>Seat</rdf:li>
            <rdf:li>Campsa</rdf:li>
            <rdf:li>La Caixa</rdf:li>
            <rdf:li>Banc De Sabadell</rdf:li>
            <rdf:li>Europcar</rdf:li>
            <rdf:li>New Holland</rdf:li>
          </rdf:Bag>
        </dc:subject>
        <dc:description>Created in Inkscape with data from Google Earth.</dc:description>
      </cc:Work>
      <cc:License
         rdf:about="http://creativecommons.org/licenses/by-sa/3.0/">
        <cc:permits
           rdf:resource="http://creativecommons.org/ns#Reproduction" />
        <cc:permits
           rdf:resource="http://creativecommons.org/ns#Distribution" />
        <cc:requires
           rdf:resource="http://creativecommons.org/ns#Notice" />
        <cc:requires
           rdf:resource="http://creativecommons.org/ns#Attribution" />
        <cc:permits
           rdf:resource="http://creativecommons.org/ns#DerivativeWorks" />
        <cc:requires
           rdf:resource="http://creativecommons.org/ns#ShareAlike" />
      </cc:License>
    </rdf:RDF>
  </metadata>
  <g
     inkscape:label="Layer 1"
     inkscape:groupmode="layer"
     id="layer1"
     transform="translate(-930.50284,-997.61967)">
    <path
       sodipodi:nodetypes="cccsssssssssssssssssssssssssssscsssssssssscssc"
       d="m 2329.9462,1281.1143 c 0.1344,-9.5912 -12.401,-18.3662 -22.599,-18.7434 -71.7636,-32.9835 31.4824,-126.582 -46.1067,-156.3802 -39.6019,-15.5266 -74.7244,-26.2131 -117.3569,-41.6649 -10.2079,-3.6998 -22.1332,-6.7828 -32.3018,-4.7854 -12.1635,2.3893 -26.5016,10.3513 -34.2715,19.6373 -8.5804,10.2546 -15.0031,24.6764 -17.3173,38.5615 -1.6737,10.0422 2.4198,23.317 7.0455,31.5284 10.6807,18.9601 29.3255,26.002 48.1324,32.3019 17.1843,5.7564 25.9509,8.5317 29.9091,19.1418 11.7246,31.4286 20.8665,61.8762 33.6434,97.8027 7.6939,21.6342 -15.2635,35.0553 -33.4506,24.4918 -137.8729,-80.08 -262.7947,-157.2138 -400.9746,-241.9309 -18.2817,-11.2084 -38.7348,-21.1261 -59.8182,-23.9273 -13.0682,-1.7363 -29.4652,-1.1711 -41.2444,1.9096 -14.142,3.6987 -31.1426,12.9868 -40.749,24.7733 -46.6227,57.2038 -70.6415,100.2738 -112.2881,161.8948 -9.3222,13.7932 -14.7495,31.4645 -12.6894,47.106 5.2216,39.6454 -11.3078,67.8579 -37.8856,69.3891 -43.8466,2.5262 -72.7239,-1.1163 -113.2792,-2.3326 -26.9443,-0.8081 -52.8936,-11.4068 -76.9177,-24.2051 -46.7414,-24.9004 -88.4504,-49.3389 -131.9504,-78.0415 -11.4789,-7.5741 -21.5062,-19.7606 -24.2051,-31.4559 -2.0865,-9.0417 2.9848,-24.5291 9.8487,-31.601 6.2961,-6.4869 16.4677,-9.739 26.2475,-9.4983 69.9924,1.7221 131.0662,0.8619 202.8738,-2.3202 14.9265,-0.6615 35.9825,-11.8782 47.021,-21.6071 12.49,-11.0081 22.571,-21.5836 29.4862,-36.797 5.0484,-11.1066 8.8831,-25.2522 7.2507,-37.0873 -1.5579,-11.2946 -9.4671,-27.2113 -16.3987,-34.8397 -8.2179,-9.044 -20.4347,-16.6557 -33.353,-16.8216 -89.187,-1.1452 -175.0872,-1.3183 -263.6105,1.2689 -21.9192,0.6376 -52.4477,10.0984 -71.8669,19.9878 -23.6499,12.0439 -43.63346,25.4713 -61.57021,44.5433 -13.56749,14.4262 -23.40711,34.8246 -28.71273,53.8364 -4.26529,15.284 -5.09693,33.106 -2.53787,49.0509 2.62519,16.3569 8.88366,28.3511 17.24464,42.3558 7.59054,12.7141 19.0097,26.0787 32.30182,32.7248 28.18185,14.0909 60.52345,23.3211 89.58205,36.6767 37.2176,17.1055 46.8327,37.6722 46.3804,77.2681 -0.2743,24.0146 5.3497,49.5266 51.5163,50.6703 231.1479,5.7262 460.0563,0.2639 691.353,0.7734 130.8027,0.2881 239.6066,0.8671 367.8745,0.7733 34.3163,-0.026 59.9072,-21.683 72.2421,-36.1086 11.1936,-13.0908 19.4806,-34.9601 20.3382,-52.7852 1.2581,-26.1511 2.2487,-51.2104 3.1641,-75.5347 z"
       style="fill:none;fill-rule:evenodd;stroke:#ffffff;stroke-width:12;stroke-linecap:butt;stroke-linejoin:round;stroke-miterlimit:4;stroke-dasharray:none;stroke-opacity:1"
       id="path4712"
       inkscape:connector-curvature="0" />
    <path
       id="path3965"
       style="fill:none;fill-rule:evenodd;stroke:black;stroke-width:10;stroke-linecap:butt;stroke-linejoin:round;stroke-miterlimit:4;stroke-dasharray:none;stroke-opacity:1"
       d="M 2329.9462,1281.1143 C 2330.0806,1271.5231 2317.5452,1262.7481 2307.3472,1262.3709 C 2291.6605,1262.2466 2283.4689,1258.1134 2284.7179,1245.4518 C 2288.3897,1208.2277 2293.6278,1171.5592 2295.9269,1134.2085 C 2297.0174,1116.4916 2275.3091,1111.5066 2261.2405,1105.9907 C 2221.6386,1090.4641 2186.5161,1079.7776 2143.8836,1064.3258 C 2133.6757,1060.626 2121.7504,1057.543 2111.5818,1059.5404 C 2099.4183,1061.9297 2085.0802,1069.8917 2077.3103,1079.1777 C 2068.7299,1089.4323 2062.3072,1103.8541 2059.993,1117.7392 C 2058.3193,1127.7814 2062.4128,1141.0562 2067.0385,1149.2676 C 2077.7192,1168.2277 2096.364,1175.2696 2115.1709,1181.5695 C 2132.3552,1187.3259 2141.1218,1190.1012 2145.08,1200.7113 C 2156.8046,1232.1399 2165.9465,1262.5875 2178.7234,1298.514 C 2186.4173,1320.1482 2163.4599,1333.5693 2145.2728,1323.0058 C 2007.3999,1242.9258 1882.4781,1165.792 1744.2982,1081.0749 C 1726.0165,1069.8665 1705.5634,1059.9488 1684.48,1057.1476 C 1671.4118,1055.4113 1655.0148,1055.9765 1643.2356,1059.0572 C 1629.0936,1062.7559 1612.093,1072.044 1602.4866,1083.8305 C 1555.8639,1141.0343 1531.8451,1184.1043 1490.1985,1245.7253 C 1480.8763,1259.5185 1475.449,1277.1898 1477.5091,1292.8313 C 1482.7307,1332.4767 1466.2013,1360.6892 1439.6235,1362.2204 C 1395.7769,1364.7466 1366.8996,1361.1041 1326.3443,1359.8878 C 1299.4,1359.0797 1273.4507,1348.481 1249.4266,1335.6827 C 1202.6852,1310.7823 1160.9762,1286.3438 1117.4762,1257.6412 C 1105.9973,1250.0671 1095.97,1237.8806 1093.2711,1226.1853 C 1091.1846,1217.1436 1096.2559,1201.6562 1103.1198,1194.5843 C 1109.4159,1188.0974 1119.5875,1184.8453 1129.3673,1185.086 C 1199.3597,1186.8081 1260.4335,1185.9479 1332.2411,1182.7658 C 1347.1676,1182.1043 1368.2236,1170.8876 1379.2621,1161.1587 C 1391.7521,1150.1506 1401.8331,1139.5751 1408.7483,1124.3617 C 1413.7967,1113.2551 1417.6314,1099.1095 1415.999,1087.2744 C 1414.4411,1075.9798 1406.5319,1060.0631 1399.6003,1052.4347 C 1391.3824,1043.3907 1379.1656,1035.779 1366.2473,1035.6131 C 1277.0603,1034.4679 1191.1601,1034.2948 1102.6368,1036.882 C 1080.7176,1037.5196 1050.1891,1046.9804 1030.7699,1056.8698 C 1007.12,1068.9137 987.13644,1082.3411 969.19969,1101.4131 C 955.6322,1115.8393 945.79258,1136.2377 940.48696,1155.2495 C 936.22167,1170.5335 935.39003,1188.3555 937.94909,1204.3004 C 940.57428,1220.6573 946.83275,1232.6515 955.19373,1246.6562 C 962.78427,1259.3703 974.20343,1272.7349 987.49555,1279.381 C 1015.6774,1293.4719 1048.019,1302.7021 1077.0776,1316.0577 C 1114.2952,1333.1632 1123.9103,1353.7299 1123.458,1393.3258 C 1123.1837,1417.3404 1128.8077,1442.8524 1174.9743,1443.9961 C 1406.1222,1449.7223 1635.0306,1444.26 1866.3273,1444.7695 C 1997.13,1445.0576 2105.9339,1445.6366 2234.2018,1445.5428 C 2268.5181,1445.5171 2294.109,1423.8598 2306.4439,1409.4342 C 2317.6375,1396.3434 2325.9245,1374.4741 2326.7821,1356.649 C 2328.0402,1330.4979 2329.0308,1305.4386 2329.9462,1281.1143 z"
       sodipodi:nodetypes="ccssssssssssssssssssssssssssssssscsssssssssscssc" />
    <path
       style="fill:none;fill-rule:evenodd;stroke:#000000;stroke-width:5.79999971;stroke-linecap:butt;stroke-linejoin:round;stroke-miterlimit:4;stroke-dasharray:none;stroke-opacity:1"
       d="m 2326.6053,1287.0867 c -0.5982,20.8491 -3.8611,40.3551 -8.121,60.3415 -2.3699,11.1191 -6.3957,18.513 -11.297,28.5503 -4.4702,9.1543 -11.771,17.3681 -18.9923,24.675 -5.3904,5.4543 -11.2807,10.4848 -17.7959,14.6555 -6.6448,4.2537 -14.2323,8.5122 -21.6841,10.6177 -10.5435,2.9791 -22.1866,3.2323 -33.3486,3.5891 -27.8195,0.8894 -56.3631,1.8596 -83.5959,0.1496 l -57.9137,-0.6571 c -44.5277,0.7503 -20.4698,0.2507 -45.1034,0.1746 -10.6296,-0.033 -24.3442,0.4778 -35.0247,0.4938 -122.1657,0.1833 -244.6735,-1.8348 -366.8237,-0.7591 -42.0008,0.3699 -97.7232,4.9426 -139.6912,6.8336 -26.6235,1.1996 -26.4282,2.3712 -53.0343,3.8882 -18.8557,1.0751 -50.6784,4.5549 -69.5959,4.3928"
       id="path4486"
       sodipodi:nodetypes="cssssssccssssss"
       inkscape:connector-curvature="0" />
    <text
       xml:space="preserve"
       style="font-style:normal;font-variant:normal;font-weight:normal;font-stretch:normal;line-height:0%;font-family:Arial;-inkscape-font-specification:'Arial, Normal';text-align:start;letter-spacing:0px;word-spacing:0px;writing-mode:lr-tb;text-anchor:start;fill:#000000;fill-opacity:1;stroke:none;stroke-width:1px;stroke-linecap:butt;stroke-linejoin:miter;stroke-opacity:1"
       x="1439.943"
       y="896.91895"
       id="text4320"><tspan
         sodipodi:role="line"
         id="tspan4322"
         x="1439.943"
         y="896.91895"
         style="font-size:35px;line-height:1.25"> </tspan></text>
  </g>
</svg>
